<mxfile host="app.diagrams.net" modified="2023-11-09T23:25:33.383Z" agent="Mozilla/5.0 (Macintosh; Intel Mac OS X 10_15_7) AppleWebKit/605.1.15 (KHTML, like Gecko) Version/17.0 Safari/605.1.15" etag="ExYbBEr9nJV-myXnS5n7" version="22.1.0" type="google">
  <diagram name="Pagina-1" id="Nm9dGoOMJmrfRw_aLYju">
    <mxGraphModel grid="1" page="1" gridSize="10" guides="1" tooltips="1" connect="1" arrows="1" fold="1" pageScale="1" pageWidth="827" pageHeight="1169" math="0" shadow="0">
      <root>
        <mxCell id="0" />
        <mxCell id="1" parent="0" />
        <mxCell id="1U8wEGAOk4EBSqKmxJh6-44" style="edgeStyle=orthogonalEdgeStyle;rounded=0;orthogonalLoop=1;jettySize=auto;html=1;exitX=0.5;exitY=1;exitDx=0;exitDy=0;entryX=0.5;entryY=0;entryDx=0;entryDy=0;" edge="1" parent="1" source="1U8wEGAOk4EBSqKmxJh6-35" target="1U8wEGAOk4EBSqKmxJh6-74">
          <mxGeometry relative="1" as="geometry">
            <mxPoint x="1230" y="240" as="targetPoint" />
          </mxGeometry>
        </mxCell>
        <mxCell id="1U8wEGAOk4EBSqKmxJh6-35" value="Level Starts" style="rounded=1;whiteSpace=wrap;html=1;fillColor=#f8cecc;strokeColor=#b85450;" vertex="1" parent="1">
          <mxGeometry x="1170" y="120" width="120" height="60" as="geometry" />
        </mxCell>
        <mxCell id="1U8wEGAOk4EBSqKmxJh6-65" style="edgeStyle=orthogonalEdgeStyle;rounded=0;orthogonalLoop=1;jettySize=auto;html=1;exitX=0;exitY=0.5;exitDx=0;exitDy=0;entryX=0.5;entryY=0;entryDx=0;entryDy=0;" edge="1" parent="1" source="1U8wEGAOk4EBSqKmxJh6-74" target="1U8wEGAOk4EBSqKmxJh6-41">
          <mxGeometry relative="1" as="geometry">
            <mxPoint x="1170" y="285" as="sourcePoint" />
          </mxGeometry>
        </mxCell>
        <mxCell id="1U8wEGAOk4EBSqKmxJh6-66" style="edgeStyle=orthogonalEdgeStyle;rounded=0;orthogonalLoop=1;jettySize=auto;html=1;exitX=1;exitY=0.5;exitDx=0;exitDy=0;entryX=0.5;entryY=0;entryDx=0;entryDy=0;" edge="1" parent="1" source="1U8wEGAOk4EBSqKmxJh6-74" target="1U8wEGAOk4EBSqKmxJh6-37">
          <mxGeometry relative="1" as="geometry">
            <mxPoint x="1290" y="285" as="sourcePoint" />
          </mxGeometry>
        </mxCell>
        <mxCell id="1U8wEGAOk4EBSqKmxJh6-49" style="edgeStyle=orthogonalEdgeStyle;rounded=0;orthogonalLoop=1;jettySize=auto;html=1;exitX=0;exitY=0.5;exitDx=0;exitDy=0;entryX=1;entryY=1;entryDx=0;entryDy=0;" edge="1" parent="1" source="1U8wEGAOk4EBSqKmxJh6-37" target="1U8wEGAOk4EBSqKmxJh6-74">
          <mxGeometry relative="1" as="geometry">
            <mxPoint x="1260" y="300" as="targetPoint" />
          </mxGeometry>
        </mxCell>
        <mxCell id="1U8wEGAOk4EBSqKmxJh6-52" value="No" style="edgeLabel;html=1;align=center;verticalAlign=middle;resizable=0;points=[];" connectable="0" vertex="1" parent="1U8wEGAOk4EBSqKmxJh6-49">
          <mxGeometry x="-0.3128" y="1" relative="1" as="geometry">
            <mxPoint x="55" y="-1" as="offset" />
          </mxGeometry>
        </mxCell>
        <mxCell id="1U8wEGAOk4EBSqKmxJh6-50" style="edgeStyle=orthogonalEdgeStyle;rounded=0;orthogonalLoop=1;jettySize=auto;html=1;exitX=0.5;exitY=1;exitDx=0;exitDy=0;entryX=0.5;entryY=0;entryDx=0;entryDy=0;" edge="1" parent="1" source="1U8wEGAOk4EBSqKmxJh6-37" target="1U8wEGAOk4EBSqKmxJh6-38">
          <mxGeometry relative="1" as="geometry" />
        </mxCell>
        <mxCell id="1U8wEGAOk4EBSqKmxJh6-51" value="Yes" style="edgeLabel;html=1;align=center;verticalAlign=middle;resizable=0;points=[];" connectable="0" vertex="1" parent="1U8wEGAOk4EBSqKmxJh6-50">
          <mxGeometry x="-0.075" relative="1" as="geometry">
            <mxPoint as="offset" />
          </mxGeometry>
        </mxCell>
        <mxCell id="1U8wEGAOk4EBSqKmxJh6-37" value="Does the player move the racoon?" style="rhombus;whiteSpace=wrap;html=1;fillColor=#ffe6cc;strokeColor=#d79b00;" vertex="1" parent="1">
          <mxGeometry x="1400" y="350" width="110" height="110" as="geometry" />
        </mxCell>
        <mxCell id="1U8wEGAOk4EBSqKmxJh6-53" style="edgeStyle=orthogonalEdgeStyle;rounded=0;orthogonalLoop=1;jettySize=auto;html=1;exitX=0.5;exitY=1;exitDx=0;exitDy=0;entryX=0.5;entryY=0;entryDx=0;entryDy=0;" edge="1" parent="1" source="1U8wEGAOk4EBSqKmxJh6-38" target="1U8wEGAOk4EBSqKmxJh6-39">
          <mxGeometry relative="1" as="geometry" />
        </mxCell>
        <mxCell id="1U8wEGAOk4EBSqKmxJh6-38" value="Racoon moves towards the goal" style="rounded=0;whiteSpace=wrap;html=1;fillColor=#dae8fc;strokeColor=#6c8ebf;" vertex="1" parent="1">
          <mxGeometry x="1395" y="540" width="120" height="60" as="geometry" />
        </mxCell>
        <mxCell id="1U8wEGAOk4EBSqKmxJh6-54" style="edgeStyle=orthogonalEdgeStyle;rounded=0;orthogonalLoop=1;jettySize=auto;html=1;exitX=0.5;exitY=1;exitDx=0;exitDy=0;entryX=0.5;entryY=0;entryDx=0;entryDy=0;" edge="1" parent="1" source="1U8wEGAOk4EBSqKmxJh6-39" target="1U8wEGAOk4EBSqKmxJh6-40">
          <mxGeometry relative="1" as="geometry" />
        </mxCell>
        <mxCell id="1U8wEGAOk4EBSqKmxJh6-55" value="Yes" style="edgeLabel;html=1;align=center;verticalAlign=middle;resizable=0;points=[];" connectable="0" vertex="1" parent="1U8wEGAOk4EBSqKmxJh6-54">
          <mxGeometry x="-0.1077" relative="1" as="geometry">
            <mxPoint as="offset" />
          </mxGeometry>
        </mxCell>
        <mxCell id="1U8wEGAOk4EBSqKmxJh6-56" style="edgeStyle=orthogonalEdgeStyle;rounded=0;orthogonalLoop=1;jettySize=auto;html=1;exitX=1;exitY=0.5;exitDx=0;exitDy=0;entryX=1;entryY=0.5;entryDx=0;entryDy=0;" edge="1" parent="1" source="1U8wEGAOk4EBSqKmxJh6-39" target="1U8wEGAOk4EBSqKmxJh6-35">
          <mxGeometry relative="1" as="geometry">
            <Array as="points">
              <mxPoint x="1600" y="710" />
              <mxPoint x="1600" y="150" />
            </Array>
          </mxGeometry>
        </mxCell>
        <mxCell id="1U8wEGAOk4EBSqKmxJh6-57" value="No" style="edgeLabel;html=1;align=center;verticalAlign=middle;resizable=0;points=[];" connectable="0" vertex="1" parent="1U8wEGAOk4EBSqKmxJh6-56">
          <mxGeometry x="-0.9135" y="-2" relative="1" as="geometry">
            <mxPoint y="-2" as="offset" />
          </mxGeometry>
        </mxCell>
        <mxCell id="1U8wEGAOk4EBSqKmxJh6-39" value="Can the racoon get to the goal?" style="rhombus;whiteSpace=wrap;html=1;fillColor=#ffe6cc;strokeColor=#d79b00;" vertex="1" parent="1">
          <mxGeometry x="1405" y="660" width="100" height="100" as="geometry" />
        </mxCell>
        <mxCell id="1U8wEGAOk4EBSqKmxJh6-40" value="Level is cleared" style="rounded=1;whiteSpace=wrap;html=1;fillColor=#f8cecc;strokeColor=#b85450;" vertex="1" parent="1">
          <mxGeometry x="1395" y="820" width="120" height="60" as="geometry" />
        </mxCell>
        <mxCell id="1U8wEGAOk4EBSqKmxJh6-60" value="Yes" style="edgeStyle=orthogonalEdgeStyle;rounded=0;orthogonalLoop=1;jettySize=auto;html=1;exitX=0.5;exitY=1;exitDx=0;exitDy=0;entryX=0.5;entryY=0;entryDx=0;entryDy=0;" edge="1" parent="1" source="1U8wEGAOk4EBSqKmxJh6-41" target="1U8wEGAOk4EBSqKmxJh6-42">
          <mxGeometry relative="1" as="geometry" />
        </mxCell>
        <mxCell id="1U8wEGAOk4EBSqKmxJh6-67" style="edgeStyle=orthogonalEdgeStyle;rounded=0;orthogonalLoop=1;jettySize=auto;html=1;exitX=1;exitY=0.5;exitDx=0;exitDy=0;entryX=0;entryY=1;entryDx=0;entryDy=0;" edge="1" parent="1" source="1U8wEGAOk4EBSqKmxJh6-41" target="1U8wEGAOk4EBSqKmxJh6-74">
          <mxGeometry relative="1" as="geometry">
            <mxPoint x="1200" y="300" as="targetPoint" />
          </mxGeometry>
        </mxCell>
        <mxCell id="1U8wEGAOk4EBSqKmxJh6-68" value="No" style="edgeLabel;html=1;align=center;verticalAlign=middle;resizable=0;points=[];" connectable="0" vertex="1" parent="1U8wEGAOk4EBSqKmxJh6-67">
          <mxGeometry x="-0.6813" y="-3" relative="1" as="geometry">
            <mxPoint x="1" y="-3" as="offset" />
          </mxGeometry>
        </mxCell>
        <mxCell id="1U8wEGAOk4EBSqKmxJh6-41" value="Does the player place the blocks?" style="rhombus;whiteSpace=wrap;html=1;fillColor=#ffe6cc;strokeColor=#d79b00;" vertex="1" parent="1">
          <mxGeometry x="985" y="350" width="110" height="110" as="geometry" />
        </mxCell>
        <mxCell id="1U8wEGAOk4EBSqKmxJh6-63" style="edgeStyle=orthogonalEdgeStyle;rounded=0;orthogonalLoop=1;jettySize=auto;html=1;exitX=0.5;exitY=1;exitDx=0;exitDy=0;entryX=0.5;entryY=0;entryDx=0;entryDy=0;" edge="1" parent="1" source="1U8wEGAOk4EBSqKmxJh6-42" target="1U8wEGAOk4EBSqKmxJh6-43">
          <mxGeometry relative="1" as="geometry" />
        </mxCell>
        <mxCell id="1U8wEGAOk4EBSqKmxJh6-64" value="No" style="edgeLabel;html=1;align=center;verticalAlign=middle;resizable=0;points=[];" connectable="0" vertex="1" parent="1U8wEGAOk4EBSqKmxJh6-63">
          <mxGeometry x="0.1" y="1" relative="1" as="geometry">
            <mxPoint as="offset" />
          </mxGeometry>
        </mxCell>
        <mxCell id="1U8wEGAOk4EBSqKmxJh6-70" style="edgeStyle=orthogonalEdgeStyle;rounded=0;orthogonalLoop=1;jettySize=auto;html=1;exitX=1;exitY=0.5;exitDx=0;exitDy=0;entryX=0.5;entryY=1;entryDx=0;entryDy=0;" edge="1" parent="1" source="1U8wEGAOk4EBSqKmxJh6-42" target="1U8wEGAOk4EBSqKmxJh6-74">
          <mxGeometry relative="1" as="geometry">
            <mxPoint x="1230" y="300" as="targetPoint" />
          </mxGeometry>
        </mxCell>
        <mxCell id="1U8wEGAOk4EBSqKmxJh6-71" value="Yes" style="edgeLabel;html=1;align=center;verticalAlign=middle;resizable=0;points=[];" connectable="0" vertex="1" parent="1U8wEGAOk4EBSqKmxJh6-70">
          <mxGeometry x="-0.8403" y="-4" relative="1" as="geometry">
            <mxPoint x="11" y="-4" as="offset" />
          </mxGeometry>
        </mxCell>
        <mxCell id="1U8wEGAOk4EBSqKmxJh6-42" value="Are the blocks placed correctly?" style="rhombus;whiteSpace=wrap;html=1;fillColor=#ffe6cc;strokeColor=#d79b00;" vertex="1" parent="1">
          <mxGeometry x="982.5" y="520" width="115" height="100" as="geometry" />
        </mxCell>
        <mxCell id="1U8wEGAOk4EBSqKmxJh6-69" style="edgeStyle=orthogonalEdgeStyle;rounded=0;orthogonalLoop=1;jettySize=auto;html=1;exitX=0;exitY=0.5;exitDx=0;exitDy=0;entryX=0;entryY=0;entryDx=0;entryDy=0;" edge="1" parent="1" source="1U8wEGAOk4EBSqKmxJh6-43" target="1U8wEGAOk4EBSqKmxJh6-74">
          <mxGeometry relative="1" as="geometry">
            <mxPoint x="1170" y="255" as="targetPoint" />
            <Array as="points">
              <mxPoint x="920" y="710" />
              <mxPoint x="920" y="250" />
            </Array>
          </mxGeometry>
        </mxCell>
        <mxCell id="1U8wEGAOk4EBSqKmxJh6-43" value="The blocks are removed automatically&amp;nbsp;" style="rounded=0;whiteSpace=wrap;html=1;fillColor=#dae8fc;strokeColor=#6c8ebf;" vertex="1" parent="1">
          <mxGeometry x="980" y="680" width="120" height="60" as="geometry" />
        </mxCell>
        <mxCell id="1U8wEGAOk4EBSqKmxJh6-74" value="Check input" style="rhombus;whiteSpace=wrap;html=1;fillColor=#ffe6cc;strokeColor=#d79b00;" vertex="1" parent="1">
          <mxGeometry x="1190" y="230" width="80" height="80" as="geometry" />
        </mxCell>
      </root>
    </mxGraphModel>
  </diagram>
</mxfile>
